<mxfile host="app.diagrams.net" modified="2023-06-07T15:02:11.304Z" agent="Mozilla/5.0 (Windows NT 10.0; Win64; x64) AppleWebKit/537.36 (KHTML, like Gecko) Chrome/114.0.0.0 Safari/537.36" version="21.3.7" etag="QgEcClSL7slSqQER8XcO" type="github">
  <diagram name="Sayfa -1" id="jU5jDCrNVYhcpvn_Mlal">
    <mxGraphModel>
      <root>
        <mxCell id="0" />
        <mxCell id="1" parent="0" />
      </root>
    </mxGraphModel>
  </diagram>
</mxfile>
